<svg width="64" height="64" viewBox="0 0 64 64" fill="none" xmlns="http://www.w3.org/2000/svg">
  <rect width="64" height="64" fill="#0B0B0B" />
  <g fill="#FFCD00">
    <rect x="29" y="4" width="6" height="10" rx="3" />
    <rect x="29" y="50" width="6" height="10" rx="3" />
    <rect x="4" y="29" width="10" height="6" rx="3" />
    <rect x="50" y="29" width="10" height="6" rx="3" />
    <rect x="10.5" y="10.5" width="8" height="6" rx="3" transform="rotate(-45 10.5 10.5)" />
    <rect x="45.5" y="45.5" width="8" height="6" rx="3" transform="rotate(-45 45.5 45.5)" />
    <rect x="45.5" y="10.5" width="8" height="6" rx="3" transform="rotate(45 45.5 10.5)" />
    <rect x="10.5" y="45.5" width="8" height="6" rx="3" transform="rotate(45 10.5 45.5)" />
    <circle cx="32" cy="32" r="16" />
    <circle cx="32" cy="32" r="7" fill="#0B0B0B" />
  </g>
</svg>
